name Walk7.mot
datacolumns 19
datarows 22
range 3.86300000 3.88400000
endheader

                time	   L_ground_force_vx	   L_ground_force_vy	   L_ground_force_vz	   L_ground_force_px	   L_ground_force_py	   L_ground_force_pz	   R_ground_force_vx	   R_ground_force_vy	   R_ground_force_vz	   R_ground_force_px	   R_ground_force_py	   R_ground_force_pz	   L_ground_torque_x	   L_ground_torque_y	   L_ground_torque_z	   R_ground_torque_x	   R_ground_torque_y	   R_ground_torque_z	
          3.86300000	         -0.00000000	         -0.00000001	         -0.00000000	          0.00000000	          0.00000000	          0.00000000	         29.97833719	        202.35805854	         -1.47626361	          0.35681306	          0.00000000	          0.11535435	          0.00000000	         -0.00000000	          0.00000000	          0.00000000	         -7.19696204	          0.00000000	
          3.86400000	         -0.00000000	         -0.00000001	         -0.00000000	          0.00000000	          0.00000000	          0.00000000	         28.45737481	        194.03649870	         -1.16827829	          0.35617130	          0.00000000	          0.11436991	          0.00000000	         -0.00000000	          0.00000000	          0.00000000	         -6.95579718	          0.00000000	
          3.86500000	         -0.00000000	         -0.00000001	         -0.00000000	          0.00000000	          0.00000000	          0.00000000	         26.94972612	        185.87463235	         -0.87719257	          0.35538813	          0.00000000	          0.11334236	          0.00000000	         -0.00000000	          0.00000000	          0.00000000	         -6.71452188	          0.00000000	
          3.86600000	         -0.00000000	         -0.00000001	         -0.00000000	          0.00000000	          0.00000000	          0.00000000	         25.45762019	        177.87743138	         -0.60255888	          0.35445510	          0.00000000	          0.11227062	          0.00000000	         -0.00000000	          0.00000000	          0.00000000	         -6.47348911	          0.00000000	
          3.86700000	         -0.00000000	         -0.00000001	         -0.00000000	          0.00000000	          0.00000000	          0.00000000	         23.98329793	        170.04949576	         -0.34392995	          0.35336370	          0.00000000	          0.11115364	          0.00000000	         -0.00000000	          0.00000000	          0.00000000	         -6.23305626	          0.00000000	
          3.86800000	         -0.00000000	         -0.00000001	         -0.00000000	          0.00000000	          0.00000000	          0.00000000	         22.52900095	        162.39503500	         -0.10086117	          0.35210528	          0.00000000	          0.10999045	          0.00000000	         -0.00000000	          0.00000000	          0.00000000	         -5.99358320	          0.00000000	
          3.86900000	         -0.00000000	         -0.00000001	         -0.00000000	          0.00000000	          0.00000000	          0.00000000	         21.09695992	        154.91785123	          0.12708728	          0.35067118	          0.00000000	          0.10878008	          0.00000000	         -0.00000000	          0.00000000	          0.00000000	         -5.75543046	          0.00000000	
          3.87000000	         -0.00000000	         -0.00000001	         -0.00000000	          0.00000000	          0.00000000	          0.00000000	         19.68938255	        147.62132459	          0.34034854	          0.34905271	          0.00000000	          0.10752166	          0.00000000	         -0.00000000	          0.00000000	          0.00000000	         -5.51895749	          0.00000000	
          3.87100000	         -0.00000000	         -0.00000001	         -0.00000000	          0.00000000	          0.00000000	          0.00000000	         18.30844156	        140.50840175	          0.53934774	          0.34724121	          0.00000000	          0.10621435	          0.00000000	         -0.00000000	          0.00000000	          0.00000000	         -5.28452091	          0.00000000	
          3.87200000	         -0.00000000	         -0.00000001	         -0.00000000	          0.00000000	          0.00000000	          0.00000000	         16.95626262	        133.58158794	          0.72450110	          0.34522811	          0.00000000	          0.10485740	          0.00000000	         -0.00000000	          0.00000000	          0.00000000	         -5.05247273	          0.00000000	
          3.87300000	         -0.00000000	         -0.00000000	         -0.00000000	          0.00000000	          0.00000000	          0.00000000	         15.63491228	        126.84294301	          0.89621547	          0.34300500	          0.00000000	          0.10345015	          0.00000000	         -0.00000000	          0.00000000	          0.00000000	         -4.82315847	          0.00000000	
          3.87400000	         -0.00000000	         -0.00000000	         -0.00000000	          0.00000000	          0.00000000	          0.00000000	         14.34638589	        120.29408122	          1.05488799	          0.34056366	          0.00000000	          0.10199204	          0.00000000	         -0.00000000	          0.00000000	          0.00000000	         -4.59691509	          0.00000000	
          3.87500000	         -0.00000000	         -0.00000000	         -0.00000000	          0.00000000	          0.00000000	          0.00000000	         13.09259543	        113.93617507	          1.20090579	          0.33789617	          0.00000000	          0.10048260	          0.00000000	         -0.00000000	          0.00000000	          0.00000000	         -4.37406908	          0.00000000	
          3.87600000	         -0.00000000	         -0.00000000	         -0.00000000	          0.00000000	          0.00000000	          0.00000000	         11.87535729	        107.76996282	          1.33464553	          0.33499499	          0.00000000	          0.09892150	          0.00000000	         -0.00000000	          0.00000000	          0.00000000	         -4.15493446	          0.00000000	
          3.87700000	         -0.00000000	         -0.00000000	         -0.00000000	          0.00000000	          0.00000000	          0.00000000	         10.69638071	        101.79575991	          1.45647303	          0.33185301	          0.00000000	          0.09730849	          0.00000000	         -0.00000000	          0.00000000	          0.00000000	         -3.93981111	          0.00000000	
          3.87800000	         -0.00000000	         -0.00000000	         -0.00000000	          0.00000000	          0.00000000	          0.00000000	          9.55725701	         96.01347355	          1.56674314	          0.32846365	          0.00000000	          0.09564346	          0.00000000	         -0.00000000	          0.00000000	          0.00000000	         -3.72898311	          0.00000000	
          3.87900000	         -0.00000000	         -0.00000000	         -0.00000000	          0.00000000	          0.00000000	          0.00000000	          8.45945003	         90.42261959	          1.66580023	          0.32482097	          0.00000000	          0.09392644	          0.00000000	         -0.00000000	          0.00000000	          0.00000000	         -3.52271748	          0.00000000	
          3.88000000	         -0.00000000	         -0.00000000	         -0.00000000	          0.00000000	          0.00000000	          0.00000000	          7.40428794	         85.02234033	          1.75397933	          0.32091966	          0.00000000	          0.09215761	          0.00000000	         -0.00000000	          0.00000000	          0.00000000	         -3.32126319	          0.00000000	
          3.88100000	         -0.00000000	         -0.00000000	         -0.00000000	          0.00000000	          0.00000000	          0.00000000	          6.39295606	         79.81142323	          1.83160805	          0.31675519	          0.00000000	          0.09033731	          0.00000000	         -0.00000000	          0.00000000	          0.00000000	         -3.12485046	          0.00000000	
          3.88200000	          0.00000000	         -0.00000000	         -0.00000000	          0.00000000	          0.00000000	          0.00000000	          5.42649048	         74.78832117	          1.89900914	          0.31232382	          0.00000000	          0.08846606	          0.00000000	         -0.00000000	          0.00000000	          0.00000000	         -2.93369026	          0.00000000	
          3.88300000	          0.00000000	         -0.00000000	         -0.00000000	          0.00000000	          0.00000000	          0.00000000	          4.50577217	         69.95117545	          1.95650343	          0.30762277	          0.00000000	          0.08654457	          0.00000000	         -0.00000000	          0.00000000	          0.00000000	         -2.74797390	          0.00000000	
          3.88400000	          0.00000000	          0.00000000	         -0.00000000	          0.00000000	          0.00000000	          0.00000000	          3.63152118	         65.29784211	          2.00441336	          0.30265024	          0.00000000	          0.08457380	          0.00000000	         -0.00000000	          0.00000000	          0.00000000	         -2.56787255	          0.00000000	
